<?xml version="1.0" encoding="UTF-8" standalone="no"?>
<svg
   id="Capa_1"
   data-name="Capa 1"
   version="1.1"
   viewBox="0 0 868.87443 1065.6963"
   sodipodi:docname="guacamolito_map.svg"
   width="868.87445"
   height="1065.6963"
   inkscape:version="1.3.2 (091e20e, 2023-11-25, custom)"
   xmlns:inkscape="http://www.inkscape.org/namespaces/inkscape"
   xmlns:sodipodi="http://sodipodi.sourceforge.net/DTD/sodipodi-0.dtd"
   xmlns="http://www.w3.org/2000/svg"
   xmlns:svg="http://www.w3.org/2000/svg">
  <sodipodi:namedview
     id="namedview21"
     pagecolor="#ffffff"
     bordercolor="#000000"
     borderopacity="0.25"
     inkscape:showpageshadow="2"
     inkscape:pageopacity="0.0"
     inkscape:pagecheckerboard="0"
     inkscape:deskcolor="#d1d1d1"
     inkscape:zoom="0.69835346"
     inkscape:cx="404.52295"
     inkscape:cy="549.14885"
     inkscape:window-width="1920"
     inkscape:window-height="1057"
     inkscape:window-x="-8"
     inkscape:window-y="-8"
     inkscape:window-maximized="1"
     inkscape:current-layer="Capa_1" />
  <defs
     id="defs1">
    <style
       id="style1">
      .cls-1 {
        fill: #fff;
      }

      .cls-1, .cls-2, .cls-3, .cls-4, .cls-5 {
        stroke-width: 0px;
      }

      .cls-2 {
        fill: #7cbf74;
      }

      .cls-3 {
        fill: #679867;
      }

      .cls-4 {
        fill: #679867;
      }

      .cls-5 {
        fill: #2c513e;
      }
    </style>
  </defs>
  <path
     class="cls-2"
     d="m 405.47444,268.84223 c 7.4,9.1 15.2,5.1 22.8,1.6 4.5,-2.1 8.9,-4.5 13.1,-7.1 7.8,-4.8 9.4,-12.8 10.4,-21.1 0.2,-1.3 0,-2.7 0,-4 0.2,-1.9 -1.1,-4.6 1,-5.5 2.3,-0.9 5,0.5 6.9,2.1 5.5,4.5 10,9.8 10.1,17.5 0,1.9 0.7,3.6 1.9,5 6.5,7 4.6,14.8 1.7,22.4 -2.6,6.9 -5.1,14.1 -9.8,20 -0.9,1.2 -1.6,2.6 -2.8,3.5 -11.5,8.1 -20.1,19.3 -30.9,28.2 -1.2,1 -2,2.6 -2.9,4 -5.3,8.2 -9.7,8 -18,3 -5.1,-3.1 -10,-7 -15.7,-9.1 -7.4,-2.7 -16,4.4 -15.7,12.7 0.2,4.5 1.1,8.9 4.1,12.5 2.2,2.6 2.6,5.3 2,8.7 -1.1,6 0.3,11.5 3.9,16.5 2,2.8 4.4,4.8 8.1,5.2 3.3,0.4 6.2,1.8 8.8,4.2 4.2,3.8 9.1,6.1 15,5.4 1.8,-0.2 3.7,-0.2 5.4,0.6 2,0.9 3.2,2.6 1.9,4.3 -2,2.8 -3.9,5.9 -7,7.7 -7,4.2 -12.4,9.5 -12.2,18.4 0,2.3 -1.4,3.5 -3,4.9 -4.9,4.3 -5.5,9.4 -1.4,14.4 1.7,2 1.8,3.7 0.7,5.9 -2.4,4.7 -6.2,8.6 -7.7,13.8 -0.5,1.9 -2.4,2.1 -4.1,2.2 -4.9,0.4 -9,2.6 -12.2,6.1 -3.1,3.4 -6.8,4.9 -11.3,5.5 -8.6,1 -12,6.8 -9.7,15.2 0.6,2.1 1.1,4.2 1.2,6.4 0.6,11.3 8.8,15.7 17.7,18.3 8.7,2.5 16.7,6.5 23.3,12 6.2,5.1 10.3,13.2 12,21.4 1,5.1 2.1,9.9 4.9,14.4 3.8,6.1 1.5,13.9 5.4,20 1.4,2.2 2.4,4.9 4.1,6.8 11.3,11.8 21.8,24.3 34.4,34.8 6,5 12.1,6.1 19.9,3.7 6.9,-2.2 14.5,-0.6 21.8,0 3,0.2 6,1.1 8.9,1.1 4.4,0 7.9,1.2 11.5,3.8 8.5,6.1 15.2,4.6 20.7,-4.3 1.3,-2.1 2.5,-1.9 4.1,-1 3,1.8 6,3.4 8.2,6.3 3.5,4.5 7.1,8.8 10.8,13.1 1.6,1.9 3.8,2.6 6.2,2.7 2.3,0 4.7,0.1 6.9,0.6 9.1,2 10.1,3.9 10.7,13.1 0.8,11.1 3.2,21.3 13.9,28.1 6.1,3.9 11,10 8.5,19 -1.2,4.4 -1.1,9.5 4.8,11.6 1,0.4 1,1.2 0.4,2 -6.3,7.7 -11.5,16.4 -21.4,20.3 -3.3,1.3 -6.6,2.3 -10.2,2 -10.2,-0.8 -20.5,0 -30.7,-0.5 -11,-0.6 -21.6,3.7 -30.3,11.1 -6.1,5.2 -12,10.5 -13.9,18.9 -1.1,4.6 -0.7,9.3 -0.6,13.9 0,5.3 -2.6,8.1 -6.2,11.1 -5.8,4.7 -11.4,9.7 -16.4,15.3 -6.7,7.3 -11.4,15.6 -14.4,25.2 -3.3,10.9 -11.1,18.2 -21.6,22.6 -1.8,0.8 -3.6,1.8 -5.2,2.9 -5.6,3.7 -10.3,3.5 -15.7,-0.8 -4.8,-3.8 -10.1,-5.9 -16.2,-4 -2.6,0.8 -3.6,-0.1 -4,-2.7 -0.8,-5.8 -4,-10.8 -4.8,-16.6 -0.9,-6.5 -6.7,-10 -11.7,-12.9 -9.4,-5.4 -20,-8.1 -30.7,-9.8 -2.1,-0.3 -4.3,0.2 -6.3,1.1 -1.4,0.6 -2.7,1.3 -4.2,1.5 -5.4,0.7 -11,0.5 -13.5,7.2 -1.9,4.9 -3.9,9.6 -4.6,15 -2,14.8 -9,24.7 -25.9,22.5 -6,-0.8 -10.8,-5.1 -15.6,-8.5 -3.9,-2.7 -7.7,-3 -11.7,-1.4 -8.6,3.3 -17.3,1.8 -23.1,-5.9 -2.2,-2.9 -4.3,-5.2 -8.4,-5.4 -3.3,-0.2 -4.3,-3.3 -4.9,-6.1 -2.2,-9.5 -6.8,-12.9 -16.5,-12.1 -0.9,0 -2.3,0.1 -2.8,-0.4 -3.9,-4.3 -10.1,-6.9 -9.9,-14.1 0,-3.4 -0.9,-7 -3.1,-9.3 -4.9,-5.2 -7.1,-12 -11.9,-17.2 -0.3,-0.4 -0.8,-0.8 -0.8,-1.2 -0.3,-9 -8.5,-14.4 -10.5,-22.7 -2.2,-9.1 -3.9,-9.9 -12.5,-7.9 -4,1 -6.6,-0.3 -8.3,-3.6 -2.6,-5.1 -4.4,-10.5 -2.2,-16.2 2,-5.1 2.7,-10.3 2.3,-15.6 -0.5,-6.5 2.6,-11.1 6.3,-16.1 7,-9.6 15.5,-17.8 22.2,-27.5 5.4,-8 13.6,-7 21.5,-7.2 2.9,0 5.2,2 6.8,4.5 1.5,2.3 3.8,3.9 6.3,2.2 6.9,-4.6 12.9,-2.2 16.7,3.4 3.8,5.5 9.5,7.5 14.4,10.7 5,3.3 5.3,6.6 3.8,11.3 -1.3,4.2 -1.7,8.5 0.3,12.6 2.4,5 8.2,6.2 11.8,2 2.6,-3 5.6,-4.2 9.4,-4.8 5.5,-0.7 10.3,-3.5 14.8,-6.9 1,-0.7 1.8,-1.5 2.1,-2.7 2.9,-10.4 7.9,-20.1 11.7,-30.2 0.4,-0.9 0.8,-1.9 0.7,-2.9 -0.6,-16.2 3,-32.5 0.8,-48.6 -1.1,-8.3 -1.6,-16.4 -1.7,-24.7 0,-2.2 0.1,-4.3 0.9,-6.4 4.7,-12.5 4.6,-24.8 -0.4,-37.4 -2,-4.9 0,-10.5 -1.4,-15.8 -2.5,-8.9 -2.6,-17.8 -0.7,-27.1 1.5,-7.4 -2.7,-14.4 -5.6,-21.3 -2.8,-6.8 -8.2,-10.7 -14.4,-13.8 -2.4,-1.2 -3.4,-2.7 -3.8,-5.3 -1.8,-10.9 -1.8,-21.8 -2.1,-32.8 -0.3,-11.1 -4.5,-20.2 -15.6,-25 -8.4,-3.7 -15.6,-20.1 -13.6,-30 1.2,-5.7 4,-10.9 5.9,-16.4 0.6,-1.9 2.4,-3.2 4.1,-4.2 9.4,-5.6 12.8,-13.4 10.1,-23.8 -1.1,-4.2 -2.4,-8.3 -2.5,-12.7 0,-1.5 -0.5,-3.2 -1.7,-4 -4.5,-3 -4.6,-7.5 -5.4,-12.2 -0.5,-3.2 -2.6,-6.1 -4,-9.1 -1.6,-3.5 -0.7,-5.6 3.5,-5.2 4.9,0.5 7.1,-1.8 7.5,-6.4 0.1,-1.5 0.4,-3.3 2.3,-3.4 1.8,-0.1 2.4,1.5 3.1,2.9 5.6,10.6 17.8,15.9 28,10.4 6.3,-3.4 12,-8.9 16.7,-14.6 1.9,-2.3 2.8,-2.3 4.4,-0.2 2.6,3.4 5.9,6.4 7.4,10.6 2.4,6.4 8.1,9 13.9,11 2.1,0.7 4,1.4 5.6,3 7.4,7.3 15.8,7 25,3.9 9.8,-3.3 15.3,-11.1 20.5,-18.9 2.8,-4.2 1.8,-9.9 0,-14.9 -1,-2.9 -2.4,-5.8 -1.2,-9.9 z"
     id="path1"
     style="fill:#53a24b;fill-opacity:1" />
  <path
     class="cls-4"
     d="m 508.67444,336.04223 c -2.1,-8.1 3.5,-10.5 8.6,-12.8 6.1,-2.9 11.6,-6.9 18.2,-9 3.2,-1 4.2,-5.2 7.3,-7.2 14,-8.8 28.2,-16.9 44,-22.5 9.6,-3.4 19.4,-5.5 29,-8.2 2.2,-0.6 5.1,-0.8 7.2,0.7 4.5,3.3 10.4,3 15,6.3 2,1.4 5.3,1 7.6,-0.8 4.8,-3.9 10.3,-4.8 16.2,-5.3 8.9,-0.7 17.5,-0.3 25.6,4.2 4.3,2.4 9.5,2.5 14.2,1.9 6.4,-0.8 11.7,1.7 17.4,3.4 6,1.8 11.5,4.8 16.7,7.6 7.3,3.9 15.7,6.1 21.8,12.1 6.4,6.4 14.2,11.1 20.9,17.3 13.9,12.9 25.5,27.4 34.6,43.8 4,7.2 6.8,14.9 10.4,22.3 2,4.1 4.4,8.7 5.2,12.7 1.5,7.4 4.5,14.5 5.2,22 0.3,3.2 1.6,6 1.9,9.2 1.1,11.8 1.8,23.7 1,35.5 -0.8,12 -2.6,23.8 -5.5,35.6 -1.5,6.1 -3.9,11.9 -4.9,18.1 -0.9,5.3 -5.9,7.6 -9.6,10.2 -7.4,5.2 -10.3,12.3 -10.7,20.9 -0.3,6.1 -3.5,10.2 -8.4,13.4 -6,3.9 -10.4,8.4 -10.4,16.4 0,6.3 -6.1,8.5 -9.7,12.4 -5.4,6 -12.5,9.9 -18.5,15.2 -3.7,3.3 -7.9,6.5 -13.2,7.6 -5.7,1.1 -10.6,5.3 -17.1,4.1 -2.3,-0.4 -4.3,-0.5 -6.4,-1.8 -8.9,-5.2 -14.7,-3.1 -17.8,6.7 -2.5,8 -7,13 -15.5,15 -4.5,1.1 -9.2,3 -13.3,5.3 -8.8,4.8 -17.9,3.6 -26.7,1.6 -10.3,-2.3 -20.7,-4.5 -30.6,-8.3 -2.6,-1 -4.7,-2.1 -6.2,-4.5 -5.1,-7.9 -12.8,-13.4 -19.5,-19.9 -1.4,-1.4 -3.2,-1.5 -5.1,-1.5 -6.1,0 -10.8,-2.6 -15,-7.3 -4.4,-4.9 -8.6,-9.8 -14.1,-14 -5.9,-4.5 -9.7,-11.6 -13.2,-18.4 -0.3,-0.5 -0.5,-1.5 -0.2,-1.9 5.3,-6.5 -1.3,-13.6 1,-20.5 1.2,-3.6 -1.8,-6.9 -5.4,-8.7 -6.5,-3.2 -13.1,-6.4 -19.7,-9.4 -2.1,-1 -2.2,-2.6 -2.6,-4.4 -3.1,-15 0.9,-27.8 12,-38.4 3,-2.9 4.6,-6.4 2.8,-10.3 -1.8,-4 -5.4,-6.5 -9.9,-6.5 -4.1,0 -6.5,-1.7 -7.7,-5.7 -1.4,-4.6 -4.6,-7.3 -9.5,-7.4 -4.3,0 -6,-1.9 -5.5,-6.2 0.6,-5.9 -0.9,-11.2 -5.5,-15.4 -0.8,-0.7 -1.6,-1.9 -1.7,-3 -1.3,-10.6 -5.3,-20.7 -5.4,-31.4 -0.1,-12.9 3.1,-25.3 5.8,-37.8 1.7,-7.8 4.7,-15.5 4.2,-23.8 -0.3,-4.2 2.9,-7.3 4.9,-10.6 1.6,-2.6 3.6,-1 5.5,1.2 z"
     id="path2" />
  <path
     class="cls-2"
     d="m 110.07444,513.94223 c -0.8,3.9 -0.6,8.9 -2.2,13.7 -1.1,3.3 -2.8,6.4 -2.2,10.4 0.4,2.3 -2.1,5 -3.9,7.3 -4.099997,5.1 -8.999997,10.1 -6.699997,17.7 0.2,0.8 0,2 0.6,2.4 4.699997,3.6 3.7,9.7 6.599997,14.1 1.3,2 1.5,4.1 1.2,6.6 -0.8,7.2 -0.7,14.4 -0.3,21.6 0.1,2.4 -0.4,4.6 -1.5,6.8 -1.899997,3.6 -1.999997,7.3 0.1,10.9 2.2,3.8 1.3,7.8 0.8,11.7 -0.7,5.9 -1.7,11.7 4.7,15.5 2.1,1.2 0.9,3 -0.2,4.2 -2.5,2.7 -2.3,5.6 -1.5,8.9 1.3,5.3 2.3,10.7 2.3,16.3 0,3.6 0.9,6.8 3.2,9.7 3,3.8 2.5,8.8 3.9,13.2 0.7,2.2 1.4,4.1 3.1,5.5 2.2,1.8 3.4,4 2.9,7 -0.3,1.8 0.8,3 1.9,4.3 4.1,4.9 6.8,9.8 6.9,17.1 0,5.6 -0.7,14 7.8,17.3 3.5,1.3 4.6,5.6 6.6,8.5 7.2,10.5 12.1,21.6 4,34.1 -1.3,2.1 -1,4.1 0.6,6 1.1,1.2 2.7,2.3 3.3,3.7 3.6,9.6 11.4,14.6 20.4,17.6 6,2 9.1,6.9 13.4,10.7 8.1,7.3 16.9,13.6 27.1,17.9 4.2,1.8 8,4.8 11.4,7.8 11.5,10.1 24,18.8 36.3,27.8 7,5.1 15,8.7 22.8,12.6 2.3,1.1 3.6,2.6 4.9,4.6 3.7,5.7 9.3,7.8 15.8,6 1.4,-0.4 2.7,0 3.9,0.6 11.1,5.5 23.4,8.5 33.9,15.1 7.9,4.9 17.3,5.1 25.4,8.8 6.6,3 13.6,3.5 20.1,6.3 3.4,1.5 6.8,0.7 10.2,1.8 3.5,1.1 7,1.7 9.9,4.2 0.7,0.6 1.4,0.6 2.3,0.6 10,-0.7 19.8,1.8 29.6,3.1 1.8,0.2 3.6,0.3 5.5,0.3 2.4,0 4.7,0.1 6.8,1.4 4,2.4 8,4.6 12.2,6.5 6.4,2.9 7.1,8.9 1.2,12.3 -13,7.3 -24.8,17.5 -40.6,19.3 -8.3,1 -16.2,4 -24,6.79997 -7.9,2.9 -15.9,4.4 -24.1,6.2 -6.3,1.4 -13.1,4.7 -15.5,10.8 -3.5,8.8 -11.2,10.8 -18.3,13.9 -3.9,1.7 -8.2,2.5 -12.2,4.2 -4.2,1.8 -8.6,0.6 -12.6,-1.1 -4.9,-2.2 -9.2,-2.2 -14,1 -6.6,4.3 -13.3,8.7 -21.7,9.4 -6.4,0.6 -12.6,-1.7 -18.9,-0.8 -0.5,0 -1.2,0 -1.4,-0.4 -5.7,-8.6 -15.6,-8.1 -23.9,-10.8 -6.4,-2.1 -11.9,-5.8 -18.3,-7.9 -5.9,-2 -12.1,-2.3 -17.9,-4.4 -8.2,-3 -15.1,-8 -22,-13.2 -8.8,-6.6 -18,-12.69997 -27.3,-18.59997 -6.6,-4.2 -13.2,-8.8 -17.6,-15.6 -0.3,-0.4 -0.5,-1 -0.9,-1.1 -10,-3.8 -13.8,-14.3 -22.2,-20.1 -5.3,-3.6 -10,-9.1 -13.099997,-14.7 -3.8,-6.8 -6.3,-14.7 -5.1,-22.8 0.8,-5.5 -0.6,-9.4 -5.8,-11.2 -8.6,-3 -14.2,-10.2 -21.5,-15.1 -3.8,-2.6 -5.8,-8.2 -8.1,-12.8 -7.2,-14.5 -12.2,-29.7 -16,-45.4 -1.8,-7.6 -3.5,-15.2 -5,-22.9 -0.2,-1.1 -0.8,-2.3 0,-3.4 3.9,-5.6 1.2,-10.9 -0.9,-16.1 -2.5,-6 -5.3,-11.8 -7.9,-17.7 -3,-6.8 -2.7,-14.3 -3.5,-21.4 -1.7,-15.2 -1.5,-30.7 -0.3,-45.9 0.6,-8.3 0.4,-16.5 1,-24.6 0.6,-7.3 -0.3,-14.4 0,-21.6 0.5,-15.8 2.3,-31.6 4.5,-47.3 0.2,-1.1 0.1,-2.3 0.1,-3.5 0.2,-18.2 3.3,-36.2 4.2,-54.4 0.8,-15.7 3,-31.3 1.5,-47 -1.2,-12.7 -2.2,-25.4 -3.1,-38.1 -0.3,-4.7 -1,-9.5 -1.7,-14.2 -1,-6.6 3.8,-13.3 10.3,-14.3 0.3,0 0.8,-0.2 1,0 7.1,5.4 18.2,3.9 23.1,13.2 0.8,1.6 2.1,3 2.4,4.9 0.9,7 5.9,11.3 10.2,16.1 1.6,1.9 3.8,1.8 6,1.7 9.6,-0.4 12.2,1.4 15.9,10.3 1.099997,2.6 2.399997,5.1 3.899997,7.5 5.2,8.4 6.2,11.5 6.6,22.5 z"
     id="path3"
     style="fill:#56ae4c;fill-opacity:1" />
  <path
     class="cls-4"
     d="m 526.97444,772.74223 c 7.1,-7.8 16,-12.3 26.2,-14.2 1,-0.2 2.1,-0.7 2.9,-0.4 10,3.4 20.1,0 30.2,0.6 15.2,1 26.2,-7 35,-18.5 2,-2.6 3.9,-5.3 6.3,-7.7 6.2,-6.4 5.5,-10.9 -2.1,-15.4 -1.4,-0.8 -1.9,-1.9 -1.6,-3.3 3,-13.2 -5.2,-21.2 -14.3,-27.7 -7,-5 -6.8,-12 -8.5,-18.7 -0.5,-2.2 1.1,-2.7 3.2,-1.8 7.6,3 15.5,4.7 23.8,5.1 3.7,0.2 6.9,1.6 10.1,3.7 7.8,5 17,6.4 25.9,4.7 4.1,-0.8 9.2,-4 9.9,-9.9 0.2,-1.7 0.8,-2.1 2.6,-2 17.2,1.4 33.8,-1.4 50.1,-6.8 4.9,-1.6 9.9,-1.8 14.8,-0.8 7,1.4 13.9,0.6 20.9,0.9 2.9,0.1 4.7,-1.4 6.2,-3.6 1.5,-2.2 3.4,-4.3 4.3,-6.7 3,-8.4 9.8,-10.2 17.6,-10.9 2.7,-0.3 3.2,1 3.3,3 0.2,3.4 -0.9,7.4 3.5,9 4.2,1.5 6.2,-2 8.9,-4.2 8.1,-6.8 13.9,-15.6 21.2,-23.1 1.7,-1.7 2.8,-2.4 5.4,-1.6 11.2,3.6 16.5,11.9 19.5,22.5 1.2,4.2 3.6,7.8 6,11.4 1.2,1.8 3,2.6 5.2,2.4 2.8,-0.3 4.4,1.4 4.1,3.7 -0.7,4.6 1.3,8.8 1.3,13.2 -0.2,15.6 -3.1,30.6 -9.4,45.1 -6.1,13.8 -13,27.2 -19.1,41 -1.7,3.9 -2.9,8.2 -4.6,12.1 -2.7,6.4 -7,11.6 -12,16.4 -4.9,4.6 -8.9,10 -11.9,15.9 -5.7,11.2 -15.7,17 -26.4,21.6 -6.2,2.7 -10.5,6.5 -12.3,12.7 -2.2,7.4 -7.4,10.8 -14.3,12 -3.6,0.7 -6,3 -7.8,5.8 -8.9,14.5 -23.4,21.4 -38.4,26.6 -5.5,1.9 -12.1,1.3 -18.1,2.6 -3.2,0.7 -5.9,1.9 -8.6,3.7 -6.7,4.6 -14.1,7.1 -22.2,8.5 -10.4,1.8 -21.1,3 -30.3,9.5 -5.6,3.9 -11.6,7.7 -19.5,6.6 -3.8,-0.5 -8.1,1.4 -12,2.6 -4.4,1.3 -8.2,1.4 -12.5,0.3 -5.7,-1.5 -9.8,-5.5 -10.1,-11.6 -0.2,-3.5 -0.4,-7 0,-10.5 0.8,-6.7 -1.5,-12.4 -5.8,-16.9 -10,-10.3 -12,-23 -12,-36.4 0,-6 -2.5,-10 -7.2,-13.4 -4.9,-3.4 -9.2,-7.6 -15.1,-9.5 -2.5,-0.9 -3.7,-3.2 -4,-5.9 -0.4,-3.5 -1.4,-6.8 -2.7,-10.1 -2,-4.5 0,-10 -3.5,-14.2 -0.9,-1.1 -1.5,-2.5 -2.8,-3.4 -4.6,-3.4 -4.8,-5.1 -2,-9.8 1,-1.6 2.1,-3 3.2,-4.4 z"
     id="path4" />
  <path
     class="cls-2"
     d="m 187.77444,338.34223 c 2.6,1.8 3,4.5 3.2,6.8 0.5,5.2 2.2,10 4,14.8 1.7,4.7 2.1,9.4 0.6,14.2 -1.1,3.3 -0.3,6.4 2.5,8.5 5.4,4.1 10.8,8.4 16.5,12.1 3.4,2.2 7.6,1.3 10.4,-0.9 5.7,-4.5 13,-8.3 11.8,-17.6 -0.2,-1.4 0.6,-2.6 1.6,-3.5 4.8,-4.2 5,-9.5 3.8,-15.2 -0.6,-2.8 0.7,-3.4 2.9,-5 6.1,-4.5 6.8,-1.1 9.5,3.8 3.3,6.1 3.4,10.8 0.9,17 -4.7,11.3 -3.8,22.4 3,33.2 4.4,7 9.1,12.7 16.5,16.6 5.7,3 7.4,9.2 7.2,15.5 -0.4,13 0.9,25.9 3.5,38.7 0.7,3.4 2.7,5.2 5.6,6.4 11.9,5 18.6,18.3 16.2,30.7 -1.7,8.7 -0.7,17.6 1.6,26.2 0,0.3 0.3,0.7 0.2,1 -1.1,11.6 5.2,22.2 4.7,33.7 -0.2,3.7 -0.7,7.2 -1.9,10.7 -3.9,11.6 -3,23.5 -0.9,35.3 0.3,1.6 0.4,3.3 0.6,4.9 1.3,15 -1.5,29.8 -2.1,44.7 -0.2,6.4 -5.1,11.5 -6.6,17.7 -0.4,1.8 -1.3,3.4 -1.9,5.1 -2.1,6.9 -6.1,10.2 -13.2,10.9 -2.9,0.3 -6.6,1.7 -8.6,0.4 -1.9,-1.2 -0.2,-5.2 -0.4,-8 -0.4,-5.1 -2.8,-8.8 -7.2,-11.2 -3.9,-2.1 -7.4,-5 -11.1,-7.4 -3.8,-2.4 -4.5,-6.9 -3,-11.2 3.1,-9.3 1,-16.6 -7.8,-21.6 -1.8,-1 -2.6,-2.6 -2.7,-4.5 -0.3,-5 -3.5,-7.8 -7.7,-8.6 -5.8,-1.2 -10.4,-4.3 -15.3,-6.9 -5,-2.7 -10.1,-3.9 -15.8,-1.8 -3.6,1.4 -7.2,-0.4 -10.3,-2.3 -4.9,-2.9 -9.5,-3.3 -15.1,-0.9 -6.6,2.8 -13.8,1.2 -20.6,-0.6 -2.4,-0.6 -2.8,-3.3 -2.5,-5.5 2.3,-15.3 -7.2,-25.2 -16,-35.5 -1.8,-2.1 -4.2,-2.6 -6.8,-1.6 -0.8,0.3 -1.6,0.5 -2.4,0.7 -7.8,1.8 -9,0.9 -9,-6.9 0,-12.2 1.2,-24.4 2.5,-36.5 1,-10.1 3.4,-19 9,-27.4 2.6,-3.8 0,-14.7 -4,-18.6 -2.9,-2.9 -5.2,-5.5 -2.9,-9.9 0.6,-1.1 0.2,-2.9 0,-4.4 -2.4,-15.8 -2.9,-31.4 2.3,-46.8 1.3,-4 0.5,-8 -2,-11.9 -3.2,-5 -4.6,-10.7 -3.3,-16.6 1.5,-7.2 5.3,-9.2 11.5,-5.6 7.7,4.5 14.2,1 20.9,-2.2 7,-3.3 12,-8.7 16.4,-14.8 2.6,-3.7 4.1,-7.5 3.7,-12.1 -0.2,-2.3 -0.1,-4.5 2.3,-6.1 6.2,-4.2 8.2,-9.8 5.2,-16.9 -0.4,-0.9 -0.6,-1.9 0.4,-3.2 z"
     id="path5"
     style="fill:#66b45d;fill-opacity:1" />
  <path
     class="cls-2"
     d="m 237.77444,0.3422284 c 6.4,1.2 13.1,2.3 19.7,3.8 6.1,1.4 12.3,0.8 18.4,0.7 1.1,0 2.3,-0.5 3.3,-1 11.5,-5.7 22.7,-4.6 34.2,0.3 5.8,2.4 12,4.2 18.2,5 7.8,1.0999996 12.9,5.4999996 17.4,11.2999996 0.8,1 0.9,2.2 0.1,3.2 -2.3,3.2 -3.6,7.5 -7.1,9.5 -8.7,4.9 -8.7,12.7 -7.5,20.8 0.8,5.8 1.1,11.7 5.3,16.8 3,3.7 1.6,8.8 -1.3,12.6 -2.5,3.2 -2.9,6.4 -2.6,10.2 0.8,11.300002 -4.8,18.200002 -16.2,20.200002 -0.8,0.1 -1.8,0.1 -2.4,0.6 -6.3,4.7 -13.6,5.8 -21.1,6.4 -4.5,0.4 -6.8,3.2 -8.2,7 -0.7,2.1 -1.3,4.3 -2.9,5.8 -8.3,7.7 -7.4,17.7 -6.8,27.4 0.5,8.6 0.7,17.1 3.2,25.6 1.8,6.3 -5.2,16.7 -11.3,17.6 -3.6,0.5 -8,-0.9 -10.5,-3.4 -6.4,-6.4 -13.7,-5.7 -21.4,-4.4 -1.4,0.2 -3.1,1.4 -4.3,0.2 -1.6,-1.8 0.6,-3 1.3,-4.3 1.6,-2.9 3.4,-5.7 5.4,-8.3 4.9,-6.2 5.1,-12.8 1.7,-19.7 -0.7,-1.3 -1.4,-2.6 -2.1,-4 q -3.6,-7.9 3.9,-12 c 4.1,-2.3 5.6,-11.5 2.1,-15.6 -2.9,-3.4 -5.7,-7 -9.5,-9.5 -6,-4 -9.7,-9.9 -12.9,-16.2 -1.5,-3 -3.1,-5.9 -4.9,-8.700002 -3,-4.6 -8.6,-5.4 -12.3,-1.4 -6.6,7.000002 -9.2,15.300002 -7,25.100002 2.1,9 2.2,18.4 0.2,27.3 -2.7,11.7 -2.7,23.8 -5.1,35.4 -4.2,20 -9.7,39.6 -26.3,53.4 -3.4,2.9 -7,5.5 -10.3,8.5 -2,1.7 -4.7,2.3 -7.5,2.2 -6.7,-0.3 -13.2,1.2 -19.8,1.9 -4,0.4 -7.1,3.3 -9.4,6.1 -3.5,4.1 -7.9,7.1 -11.4,11.1 -1.7,1.9 -3.2,2.3 -4.7,0 -1.2,-1.9 -3.1,-2.7 -5.2,-3.5 -3.399997,-1.3 -6.299997,-3.2 -7.899997,-7.1 -1.2,-3.1 -3.4,-5.7 -6.4,-7.4 -3.7,-2.1 -2.6,-6.2 -3.5,-9.3 -2.1,-7.1 -4.1,-14.3 -4.3,-21.8 0,-2.9 0.5,-5.6 3.1,-7.5 1.4,-1 2.5,-2.5 2.3,-4.2 -1.1,-8.4 5,-13.4 9.1,-19.2 2.8,-3.9 3.3,-9.3 0.7,-13.4 -0.8,-1.3 -1.3,-2.8 -2.4,-3.8 -4.3,-4.1 -4.2,-9 -2.6,-14.2 1.9,-6.4 1.7,-13.1 3,-19.6 1.1,-5.2 3,-10.6 5.8,-15.1 2.5,-4.1 3.599997,-8.4 5.099997,-12.7 1.9,-5.4 4.8,-10.200002 10.6,-12.300002 4.4,-1.6 7.1,-4.9 8.7,-9.1 0.9,-2.3 2,-4.1 4.1,-5.4 1.8,-1.2 3.7,-2.8 3.2,-5.2 -1.1,-5.9 3.5,-7.4 7.3,-9 5.2,-2.1 9,-6.3 8.8,-11.8 -0.2,-8.7 5,-14.4 11.3,-18.1 10.6,-6.1 20.3,-13.8 31.9,-18.2 2.9,-1.1 5.7,-3.2 8.9,-2.9 10.3,1 17.9,-4.8 24.9,-10.6999996 4.8,-4 9.8,-5.1 15.8,-5.9 z"
     id="path6"
     style="fill:#59ab4f;fill-opacity:1" />
  <path
     class="cls-4"
     d="m 392.77444,365.44223 c 0.2,-0.9 0.4,-2.5 0.7,-4.1 0.9,-3.8 0.2,-7.3 -2.5,-10.2 -2,-2.1 -3.4,-4.5 -3.7,-7.5 -0.2,-1.7 -0.6,-3.5 1.2,-4.5 1.8,-1 3.8,-0.6 5,0.9 3.5,4.1 9.7,4.4 12.7,9.2 1.1,1.8 3.7,1.3 5.6,1.6 6,1 11.9,-0.3 17.7,-1.5 2.3,-0.5 3.9,-2.3 3.8,-4.7 0,-2.6 1.1,-4.6 2.8,-6.1 9.8,-8.9 18.6,-18.9 29.4,-26.9 6.6,-4.9 9.8,-12.8 13.3,-20.1 3.6,-7.5 4.6,-15.9 7.8,-23.6 0.9,-2.1 0.2,-4.1 -1.2,-6.1 -3.4,-4.7 -6.1,-9.6 -7.3,-15.5 -2.2,-10.6 -9.2,-17.6 -19,-22.1 -3.7,-1.7 -7,-4.4 -11.4,-4.2 -0.6,0 -1.5,-0.8 -1.9,-1.4 -5,-8.4 -13.1,-14.1 -19.6,-21.2 -2.7,-3 -4.3,-5.5 -1.2,-9 1.9,-2.1 2.6,-5 1.8,-7.5 -2,-6.2 0.2,-11.6 1.8,-17.4 2.2,-8.2 -4.5,-20.2 -12.4,-23 -3.9,-1.4 -7.7,-3 -11.1,-5.6 -3.6,-2.8 -7.9,-4.2 -12.5,-4.4 -1.2,0 -2.5,0.2 -3.5,-0.3 -5.4,-2.9 -10.1,-1 -14.3,2.2 -2.7,2 -4.6,1.8 -7.1,0 -3.5,-2.6 -6.4,-5.4 -8.3,-9.5 -2.4,-5.1 -7.8,-6.4 -13,-7.2 -6.5,-1 -6.6,-0.9 -3,-6.5 0.8,-1.3 2,-2.7 2,-4 -0.3,-9.100002 2.3,-17.400002 4.9,-26.000002 1.8,-5.8 0.5,-12.4 -4,-17.8 -4.3,-5.2 -2.7,-16.7 2.5,-21 4.8,-3.9 6.8,-9.8 11.1,-14 6.9,-6.9 7.3,-7 14.1,-0.2 0.9,0.9 2.1,1.8 3.3,2 10.1,1.7 15.8,8.4 19.8,17.1 1.5,3.3 4,5.3 7.6,5.7 3.8,0.4 6.5,1.8 7.4,6.1 0.5,2.7 2.8,4.8 5.4,5.4 11.1,2.6 15.8,12.1 21.9,19.9 2.2,2.8 3,6.6 6.3,8.8 1.5,1 1.3,2.9 1.5,4.6 0.7,5.800002 1.2,11.500002 4.1,16.800002 1.7,3.1 0.1,7.4 3.7,10 1.7,1.3 3.2,2.3 5.4,1.7 7.3,-2 13.5,0.4 17.3,7.4 2.9,5.3 6.5,10.5 6.3,17 0,2.5 2.1,3.6 3.5,5.2 3.5,3.7 7.1,7.6 6.7,13.3 -0.3,4.4 3.1,6.7 5.6,9 2.9,2.7 4.9,5.6 6.3,9.2 2.6,6.9 8.1,12.1 10.9,18.9 3.1,7.5 7,14.7 11.3,21.4 4.4,6.8 8.1,14.5 13.8,20.3 4.4,4.6 4.5,10.5 7.2,15.4 0.6,1 0.3,2 -0.7,2.6 -1.2,0.7 -1.7,1.7 -1.1,3 4.1,9.1 -1,15.2 -7,20.6 -2.4,2.2 -4,5.2 -7.5,6.4 -4.5,1.6 -8.2,3.4 -13.3,0.3 -4.3,-2.7 -11.6,3.7 -11.5,9.9 0,5.9 -3.6,9.4 -7.8,11.1 -12.1,4.9 -17.2,14.4 -21,26 -3.5,11 -6.5,22.3 -11.8,32.6 -4.3,8.3 -12,11.4 -20.8,14.3 -7.4,2.4 -13,-1.2 -19.3,-1.9 -2.8,-0.3 -5.5,-1.1 -8.4,-0.7 -3.3,0.4 -6.1,-1 -8,-3.3 -2.9,-3.6 -6.9,-4.5 -10.7,-5.8 -5.6,-2 -7.2,-3.9 -7.3,-10.8 z"
     id="path7" />
  <path
     class="cls-2"
     d="m 211.37444,105.64223 c 4.2,4 5.3,8.5 7.7,12.3 4.1,6.6 10.3,10.8 15.6,16 4.6,4.6 4.6,4.7 -0.3,8.6 -6.7,5.4 -8.6,10.5 -4.3,17.9 5.2,8.9 6.3,16.8 -1.6,24.6 -1.8,1.8 -2.9,4.4 -4.5,6.6 -3.6,4.9 -3.1,8.7 1.8,12.5 4.2,3.3 9,3.5 13.8,2.3 5.5,-1.4 10.1,-1.4 14.7,2.8 3.9,3.5 9.5,4.4 14.6,5.6 2.7,0.6 5.6,0.2 7.8,-2.2 0.9,-1 2.1,-2.9 3.6,-1.5 1.8,1.7 -0.1,3.2 -1.4,4 -7.6,4.9 -11.6,12.6 -15.9,20.1 -1.5,2.7 -2.2,5.4 -1.3,8.6 0.7,2.4 0.9,4.9 0.9,7.4 -0.2,7.9 2.7,14.2 7.9,20.2 5.5,6.3 3.9,10.6 -3.6,14 -7.5,3.4 -9.9,9.3 -7.2,17.1 1.8,5 5.4,9.4 4.7,15.4 -0.2,2 1.3,4.6 2.7,6.3 6,6.9 6.4,15.3 6.6,23.7 0,3.7 -4.5,7.7 -8,7.5 -2.5,-0.1 -3.6,-2.4 -3.7,-4.1 -0.5,-7.6 -5.4,-13.9 -6.1,-21.4 -0.4,-4.1 -3.1,-6 -7.2,-6.1 -3.9,0 -5.8,1.9 -6.2,5.6 -0.1,1.3 -0.5,2.7 -0.4,4 0.7,5.5 -0.2,9.7 -6.7,11 -2.3,0.5 -3.6,2.8 -3.2,5.5 0.4,2.6 0.3,5.4 0.9,7.9 1.1,4.3 0.4,7.8 -3.2,10.7 -2,1.6 -2.5,3.9 -2.2,6.4 0.7,5.8 -3.6,8.1 -7.2,11 -0.1,0.1 -0.3,0.2 -0.4,0.2 -3.3,1 -15.6,-9 -14.8,-12.4 1.6,-7.6 -1.1,-14.4 -3.2,-21.4 -2,-7 -3.4,-14.1 -6,-21 -1.5,-4.1 -3.1,-8 -6.3,-11.2 -2.1,-2.2 -4.6,-2.8 -7.3,-1.9 -2.7,0.9 -3.3,3.4 -2.9,5.7 1.1,5.7 -3.8,10.7 -1.8,16.6 0.5,1.6 0.4,3.3 1,4.9 1,2.8 0.1,4.7 -2.4,5.7 -4.4,1.7 -6.4,4.9 -5.5,9.4 2.3,11.5 -11.8,22.3 -20.4,24.9 -6.2,1.9 -10.4,-0.5 -14.7,-4.1 -3.5,-2.9 -8.1,-3.2 -12.1,-5.2 -3.1,-1.5 -4.8,-3.3 -5.4,-6.4 -1.4,-7.4 -2.6,-14.9 -4.9,-22.2 -1.8,-5.5 -1.3,-11.8 -1.8,-17.8 -0.2,-2.2 2,-4.8 3.6,-6.9 2.4,-3.3 3.1,-6.9 3.4,-10.8 0.3,-4.7 -1.9,-7.7 -6.3,-8.9 -5.7,-1.5 -9.3,-6.2 -13.999997,-9.1 -2.9,-1.8 -4.5,-6.1 -1.9,-10.2 1.6,-2.6 2.2,-4.9 6.399997,-1.9 4.5,3.2 8.7,-1.6 11.5,-4.4 4.4,-4.4 10.1,-7.5 13.5,-13.1 1.9,-3.1 5.4,-4.6 9.5,-4.6 5.5,0 10.9,-0.7 16.4,-1.1 3.6,-0.2 6.9,-1.5 9.7,-3.6 17.6,-13.8 31.6,-29.8 37.3,-52.5 3.1,-12.4 4.2,-24.8 6.3,-37.3 1.9,-11.5 4.5,-22.8 3.7,-34.5 -0.3,-4.3 -0.6,-8.6 -1.8,-12.8 -1.2,-4.2 1.9,-7.4 2.4,-12.2 z"
     id="path8"
     style="fill:#3c7334;fill-opacity:1" />
  <path
     class="cls-2"
     d="m 522.87444,805.64223 c 1.2,4.3 2.4,8.6 3.5,13 1.2,4.9 4,8.5 8.7,10.1 5.7,2 10,5.8 14.5,9.4 1.7,1.4 2.3,3.2 2.4,5.3 0.2,4.5 0.7,9 0.8,13.4 0.2,9.7 4.7,17.6 10.4,24.8 4.8,5.9 7.5,11.9 6.6,19.6 -0.8,7.1 0.3,13.7 5.1,19.7 3.1,3.9 6,7.1 11.3,6.7 1.3,0 2.6,0.4 4.5,2.2 -27.2,7.5 -54.3,8.9 -81.6,9.9 -27.6,1 -54.8,-0.7 -82.1,-4.9 -27.3,-4.2 -53.2,-13 -78.9,-22.5 -25.8,-9.6 -49.5,-23 -72.1,-39.8 4.3,-1.1 8.2,-3.3 11.8,-2.8 3.8,0.5 7.7,3 10.8,5.5 9.5,7.4 26,6.2 35,-0.8 7.5,-5.8 11,-14.8 12.4,-24.2 0.4,-2.5 0.3,-5 0.9,-7.4 1.2,-4.2 3.6,-6.1 8.2,-7.8 11.8,-4.3 22,0 32,4.3 6,2.6 12.1,6.1 12.8,14.7 0.5,5.6 3.9,10.8 3.8,16.8 0,0.7 0.5,1.6 1.1,2.2 1.4,1.7 11.4,4.5 13,3.1 3.9,-3.3 7,-1 9.7,1.2 4,3.2 8.7,4 13.3,5.1 4,0.9 7.4,0.2 10.5,-2.9 1.8,-1.9 4.1,-3.6 6.6,-4.4 8.6,-2.7 14.4,-9.4 20.9,-14.9 3.6,-3 4.1,-8.4 5.3,-12.7 4.4,-16.4 16.7,-26.3 28.4,-36.9 2,-1.8 4.1,-3.4 6.2,-5.1 1.4,-1.8 2.7,-2.2 4,0.1 z"
     id="path9"
     style="fill:#6db864;fill-opacity:1" />
  <path
     class="cls-2"
     d="m 375.77444,304.84223 c -1.1,-0.1 -2.9,0.3 -3.6,-0.5 -7,-7.4 -19.8,-6.9 -24.1,-18.4 -1.7,-4.4 -5.9,-8 -9.4,-11.6 -4.8,-4.9 -11.8,-3.1 -16,2.4 -4.8,6.3 -10.3,12.5 -19,13.7 -4.5,0.6 -7.7,-2.3 -9.6,-5.8 -1.7,-3.2 -3.5,-6.3 -6.3,-8.3 -5.7,-4.1 -8.8,-10.3 -13.1,-15.4 -1.8,-2.2 -2.4,-4.9 -2.8,-7.8 -1.2,-9.6 -0.4,-18.5 7.1,-25.6 2.5,-2.4 5.3,-4.6 7.9,-6.9 4.3,-3.9 5,-8 2.3,-12.9 -1,-1.8 -2,-3.7 -1.1,-5.7 4.1,-9.1 3.7,-18.1 0.9,-27.6 -2.1,-7 -0.6,-14.6 -1.3,-21.8 -0.9,-9.1 6.6,-14.1 9.9,-21.1 0.8,-1.7 3.6,-1.7 5.5,-1.7 5,0 9.4,-1.8 13.6,-4.3 4.2,-2.5 8.3,-3.8 13.1,-1.2 4.8,2.5 10.1,0 15.1,1.1 2.8,0.6 4.6,1.6 6.2,4.2 4.5,7.3 11.2,12.2 19.3,14.9 2.7,0.9 5.3,0.5 7.3,-1.9 2.4,-3 5.3,-3.3 9.2,-3.1 10.5,0.3 17.9,7.4 26.9,11.1 5.7,2.4 6.7,10.2 3.3,15.6 -2.5,4 -1.4,8.1 -0.4,12.1 0.7,2.5 0.8,4.3 -0.9,6.4 -4,5 -3.2,13.1 1.4,17.6 5.8,5.7 11.7,11.3 17.4,17.1 7.2,7.3 9.6,22.6 5.1,31.9 -0.7,1.4 -1.7,2.5 -2.9,3.3 -4.4,2.9 -9,5.8 -14,7.7 -4.1,1.5 -7.9,3.4 -11.6,-1.9 -2.7,-3.9 -8.7,-3.1 -14.2,0 -4.4,2.6 -3.4,6 -2.5,10 1,4.2 2,8.4 3.1,12.6 1,3.7 0.4,7 -2.6,10 -4,3.9 -6.8,9.1 -12.8,10.6 -2.1,0.5 -4.2,1.2 -6.6,1.1 z"
     id="path10" />
  <path
     class="cls-2"
     d="m 473.07444,991.94223 c 7,0.5 9.9,-1.6 10.6,-8.1 1.6,-14 9.4,-23.3 22.5,-26.8 7.8,-2.1 16.3,-2.2 24.5,-2.8 6.5,-0.5 12.2,0.6 18.1,3.2 5.7,2.5 10.5,0.6 14.5,-4.3 4,-4.9 10.2,-4.4 15.7,-4.5 3.5,0 6,-0.7 9.1,-2.7 5.9,-3.8 13.3,-4 19.8,-6.4 11.2,-4 23,-2.7 34.4,-4.7 4.8,-0.8 9.4,6.1 7.8,11.2 -1,3.2 -2.8,6 -4.9,8.6 -3.1,3.9 -3.8,8.2 -0.9,12.5 2.2,3.2 1.9,6.1 -0.2,9.2 -5.4,8.1 -11.2,16.1 -15.6,24.79997 -0.2,0.4 -0.5,1 -0.9,1.2 -12.3,6.7 -20.6,19.1 -34.6,23.9 -12,4.1 -23.8,8.7 -35.8,12.9 -6.6,2.3 -13.6,2.5 -20.2,4.3 -11.9,3.3 -23.7,7 -35.6,10.5 -1.8,0.5 -3.2,0 -4.8,-0.6 -8,-3.1 -14.5,-2.3 -21.9,3.8 -6.7,5.6 -15.4,8.8 -25.7,7 -9.2,-1.6 -17.6,-5.6 -26.8,-7 -2.2,-0.4 -4.4,-1.6 -6.3,-2.9 -4.7,-2.9 -9.5,-4.7 -15.1,-3 -1,0.3 -2.4,0 -3.4,-0.4 -4.9,-2.2 -9.7,-1.9 -14.6,-0.3 -4.8,1.5 -7.6,0.1 -9.5,-4.5 -1.9,-4.6 -5,-8.7 -4.9,-14.3 0,-4.2 0.6,-7.2 4.9,-8.4 1.3,-0.4 3,-1 3.1,-2.2 0.5,-5.6 4.8,-5.6 8.6,-6.2 12.3,-1.8 23.2,-8.1 35.4,-10.3 8.3,-1.5 16.5,-3.6 24.7,-5.49997 7,-1.6 14.3,-3.7 21.2,-6.4 2.4,-1 4.8,-1.1 6.8,-0.9 z"
     id="path11" />
  <path
     class="cls-2"
     d="m 89.974443,370.74223 c 0.7,1 1.1,2.1 0.9,3.3 -2.7,19.2 0.7,38.3 1,57.5 -1.4,-1.8 -2.7,-3.8 -4.3,-5.7 -6.2,-7.3 -13.3,-12.6 -23.6,-13.1 -7.7,-0.4 -13.8,-5.2 -18.9,-10.9 -4.4,-5 -9,-9.5 -15.2,-12.5 -5.6,-2.8 -8.7,-8.4 -12,-13.7 -5.9,-9.3 -10.5000001,-19 -13.0000001,-29.7 -0.8,-3.4 -1.1,-6.9 -1.4,-10.3 -0.8,-11.2 -3.99999999,-22.3 -3.39999999,-33.6 0.7,-13.9 0,-28.1 3.19999999,-41.7 2.6,-11.4 1.8,-23 4.3,-34.3 1.2,-5.7 1.6,-11.8 4.9000001,-17 0.9,-1.5 1.1,-3.1 1.4,-4.7 0.5,-3 0,-7 5,-7 0.9,0 2.1,-1.5 0.9,-2.1 -5,-2.4 -2.2,-6.6 -1.4,-9.1 3.8,-12.2 7.7,-24.5 13.9,-35.7 3.9,-7 9.1,-13.3 13.8,-20 1.4,-2 3.2,-4 4,-6.2 1.6,-4.6 5.1,-7.4 8.1,-10.9 5.6,-6.4 11.3,-12.6 17.5,-18.400002 5.4,-5.1 11.1,-10 16.4,-15.2 1.7,-1.7 4,-1.4 5.9,-2.4 2.099997,-1.2 4.899997,-0.8 6.099997,-4.1 0.6,-1.7 3.4,-1.5 4.8,-0.1 2.3,2.3 3.1,5.3 1.1,8.1 -1.2,1.8 -2.9,3.2 -4.5,4.7 -11.499997,10.7 -18.999997,24.000002 -24.599997,38.400002 -0.7,1.9 -2,2.8 -3.7,3.7 -8,4.1 -8.9,5.9 -7.5,14.5 0.8,5.2 2.1,10.4 -0.4,15.6 -0.7,1.4 -0.1,3.6 0.1,5.4 0.8,5.6 -3,10 -8.2,9.5 4.2,8.1 -3.1,13.1 -5.4,19.5 -0.8,2.3 -2.9,4 -4,6.2 -2.6,5.1 -1.4,8.5 3.6,11.5 10.4,6.2 13.6,14.2 10.2,25.8 -0.7,2.4 -0.5,4.7 1.5,6.4 5.3,4.4 6.6,10.9 7.6,16.9 1.8,11.1 4.8,21.9 8.3,32.5 0.8,2.3 0,5.1 2.1,7 2.6,5.3 0.5,10.3 -1,15.3 -0.6,2.2 -0.8,4.3 -0.2,6.3 2.9,8.9 1.6,17.5 -0.8,26.2 -2.2,7.8 1.1,19.5 6.9,24.2 z"
     id="path12" />
  <path
     class="cls-2"
     d="m 467.47444,400.74223 c 1.4,16.8 -1.6,33.4 -1.8,50.2 0,4.6 0.2,9 3.4,12.6 0.5,0.6 0.9,1.5 0.9,2.3 -0.4,4.7 1,8.9 3.1,13.2 3,6 3.8,12.7 5.4,19.1 2,8 6.5,15.2 7.6,23.5 0.9,6.8 2.5,13.3 4.4,19.9 1,3.5 2.4,6.6 5.3,8.8 2.6,2.1 3.7,4.7 3.2,7.9 -1.6,9.9 3.2,17.3 9.4,24.1 1.5,1.6 3.4,2.7 5.4,3.5 7.7,2.9 13.2,8.5 18.1,14.8 1.8,2.4 2,5.2 1.9,8.1 -0.2,3.8 0.3,7.5 2.8,10.4 3.3,3.7 1,6.8 -0.7,9.9 -1.3,2.2 -3.7,2 -5.2,0.5 -8.4,-8.6 -19.6,-5.7 -29.6,-7.5 -5.8,-1.1 -12,-0.6 -17.9,-0.9 -2,0 -4.1,0.2 -5.7,1.4 -2.6,2 -5.2,1.4 -7.3,-0.4 -14.1,-11.7 -26.8,-24.9 -37.9,-39.5 -1.4,-1.9 -2.6,-4.1 -2.4,-6.5 0.6,-6.9 -2.9,-12.5 -5.6,-18.3 -0.3,-0.7 -1.1,-1.5 -1.1,-2.2 0.1,-10.5 -6.5,-18.3 -10.8,-27 -1.4,-2.8 -3.3,-5.2 -6,-6.5 -8.4,-4.3 -16,-10 -25.4,-12.5 -9.9,-2.6 -13.8,-9.1 -13,-19.6 0.2,-2.4 1.7,-3 3.7,-3.1 5.8,-0.3 10.5,-2.7 14.4,-6.9 2.4,-2.6 5.3,-4.4 9.2,-4.3 4.4,0 7.8,-2.4 9.4,-6.4 2.4,-5.9 5.8,-11.3 9.1,-16.6 2.3,-3.7 2.6,-6.8 -0.3,-9.9 -2.5,-2.7 -2.5,-5 0.3,-7.7 2.9,-2.8 4.8,-5.9 3.9,-10.6 -0.8,-4.4 3.4,-7 6.6,-9.2 2.5,-1.7 4.8,-3.4 6.6,-5.9 5.2,-7.3 12.5,-11.1 21.3,-13 4,-0.8 7.9,-2.5 11.7,-4 2.5,-1 3.2,-1 3.2,1.8 0,2.1 0.2,4.3 0.4,6.4 z"
     id="path13" />
  <path
     class="cls-4"
     d="m 158.97444,737.24223 c 0.2,-4.1 -2.7,-5.5 -4,-7.9 -2.8,-5.2 -5.6,-10.6 -7.4,-16.2 -3.3,-10.5 -7,-20.8 -10.5,-31.2 -3.5,-10.4 -6.5,-21 -8.7,-31.8 -1.9,-9.3 -2.4,-18.8 -3.2,-28.1 -0.6,-7 -3.4,-14.6 0,-21.8 0.7,-1.4 -0.5,-2.5 -0.9,-3.8 -1.4,-5.3 0.9,-8.7 6.2,-8.4 3.2,0.2 6.8,-2.8 9.4,0.6 4.7,6.1 10.8,11.6 10.9,20.2 0,3 -0.3,6 -0.1,9 0.4,5.9 4,10.8 9.8,11.8 9.1,1.5 18.4,3.6 27.3,-1 1.9,-1 3.7,0 5.2,0.9 5.9,3.8 12,5.3 18.9,2.9 3.8,-1.3 7.1,0.8 10.3,2.7 4.1,2.5 7.9,5.6 13,5.9 2.2,0.1 2.9,2 3.4,3.8 1.1,4.2 3.3,7.4 7.2,9.7 2.9,1.6 4.6,4.2 3.7,8 -0.9,3.8 -3.7,4 -6.8,4.4 -5.2,0.8 -10.2,1.9 -14.5,-2.5 -0.5,-0.5 -1.5,-0.6 -2.3,-0.7 -13.4,-2.1 -25.7,-1.6 -34.8,10.8 -8.2,11.2 -17.8,21.4 -25.9,32.8 -2.6,3.7 -3.7,7.6 -3.5,12.2 0.2,5.6 0.6,11.4 -3,17.8 z"
     id="path14" />
  <path
     class="cls-2"
     d="m 713.67444,944.04223 c -4,0.5 -7.5,-0.7 -9.8,-3.9 -4.4,-6.2 -10.6,-6.2 -17,-5 -4.1,0.7 -8,-0.3 -11.7,-1.5 -2,-0.6 -4,-2.1 -4.1,-4.6 0,-2.7 2.4,-3.5 4.5,-3.8 11.9,-1.6 20.2,-9.6 28.7,-16.9 3.7,-3.2 7.6,-4.5 12.2,-4.7 3.2,-0.1 5.9,-1.1 8.1,-3.3 7.9,-7.9 18,-10.2 28.5,-11.3 4.1,-0.4 5.8,3.2 5.9,6.6 0,9.5 -3.8,17.6 -10.4,24.1 -2.1,2.1 -3.9,4.4 -5.7,6.8 -5.8,7.6 -13.1,13.3 -22.2,16.5 -2.2,0.7 -4.6,0.7 -6.9,1 z"
     id="path15"
     style="fill:#57a84d;fill-opacity:1" />
  <path
     class="cls-2"
     d="m 830.77444,828.74223 c 1.3,-5.3 6,-10.4 10,-10.7 4.8,-0.3 8.6,1.7 11.2,6 1.6,2.7 2.8,5.7 6.1,6.8 0.4,0.1 0.9,0.7 0.9,1.1 0.6,8.9 7.3,16.1 6.7,25.5 -0.6,9.3 -12.4,16.5 -20.4,11.6 -4.1,-2.6 -9,-4.5 -11.2,-9.7 -1.3,-2.9 -4.2,-3.7 -7.5,-3.9 -9.5,-0.5 -11.9,-2.2 -13.7,-11.4 -0.2,-1.1 -0.9,-2.1 -1.4,-3.1 -0.7,-1.3 -0.7,-2.6 0,-3.8 0.8,-1.5 2.2,-1.4 3.5,-0.7 2.7,1.4 3.2,-0.6 2.6,-2.2 -1.7,-4.6 1.2,-5.5 4.5,-6.3 0.8,-0.2 1.6,-0.5 2.3,-1 2.6,-1.9 5,-2.9 6.5,1.8 z"
     id="path16" />
  <path
     class="cls-3"
     d="m 85.674443,463.74223 c -4.6,-1 -6.9,-4.6 -8.1,-8.8 -2.4,-8.1 -6.8,-14.7 -14.1,-19.1 -1,-0.6 -2,-1.5 -3.1,-1.6 -7.2,-0.2 -12.3,-5.4 -18.8,-7.4 -2.4,-0.7 -8.2,-9.8 -8.1,-11.9 0.1,-1.6 1.1,-2 2.4,-1.5 12.8,5.2 26.6,8.6 36.8,18.6 3.7,3.6 5.9,9 10.7,11.5 5.8,2.9 8.3,8.9 13.4,12.5 2.3,1.6 1,6.2 -1.7,6.2 -3.3,0 -6.1,1.2 -9.5,1.6 z"
     id="path17" />
  <path
     class="cls-3"
     d="m 359.87444,1062.9422 c -1.9,-0.2 -3.7,0 -5.3,1 -5.5,3.1 -10.4,1.9 -14.7,-2.1 -2.3,-2.2 -5.1,-2.1 -7.9,-2.3 -1.6,-0.1 -3.6,0 -4,-2.1 -0.4,-1.9 0.9,-3.2 2.4,-4 5.7,-3.2 10.4,-7.6 15.2,-11.9 1.3,-1.2 3,-2.1 4.6,-2.8 6.7,-3 6.6,-2.8 9.7,3.3 2.3,4.5 5.4,8.6 6.1,13.9 0.7,5.2 -0.8,7.3 -6.2,7.1 z"
     id="path18" />
  <path
     class="cls-1"
     d="m 658.97444,978.24223 c 0.2,-2.2 0.5,-4.9 0.8,-7.5 0.3,-2.6 2.1,-3.7 4.3,-4.2 5.1,-1.2 7.3,-4.6 8,-9.5 0.7,-4.5 2.6,-5.4 6.9,-3.5 2,0.9 3.9,1.8 5.9,2.6 4.1,1.7 5.4,5.1 2.5,8.5 -6.1,7.1 -12.3,14.2 -20.7,18.7 -5.2,2.8 -7.8,1.3 -7.7,-5.1 z"
     id="path19" />
  <path
     class="cls-4"
     d="m 791.27444,871.74223 c -2.8,-0.4 -6,-2.5 -7.5,-6.2 -1.4,-3.5 -0.5,-6.9 2.7,-9.3 0.3,-0.3 1,-0.8 0.9,-0.9 -1.5,-2.9 0.3,-4.7 2.4,-5.4 4.2,-1.5 8.5,-3.9 13.2,-2.4 7.5,2.5 7.7,3 4.6,11 -3.3,8.8 -8.6,13.4 -16.4,13.2 z"
     id="path20" />
  <path
     class="cls-5"
     d="m 306.07444,1057.7422 c -0.6,0 -1.3,0 -2,0 -3.7,0.2 -7.4,-1.6 -8,-4.4 -0.5,-2.2 4.1,-3 6.6,-4 2.6,-1.1 5.3,-1.8 8,-2.7 1.7,-0.6 3.7,-1.6 4.8,0.6 0.9,1.8 2.1,4.1 0.3,6 -2.5,2.9 -5,6 -9.7,4.5 z"
     id="path21" />
</svg>
